#!OML:ASF I:\golf\golf\golf 2\Subject 1\2002-09-07\Subject1.ASF
:FULLY-SPECIFIED
:DEGREES
324
root -6.51516 17.9067 2.43547 3.01009 46.8777 -13.6689
lowerback 4.78993 -9.70802 -10.8768
upperback -0.0784706 -13.4708 -2.12639
thorax -0.782417 -6.62058 4.15628
lowerneck -7.27731 20.7963 1.78613
upperneck 14.3846 30.9908 -14.6105
head 8.31747 13.7512 -1.52792
rclavicle -1.18277e-013 -1.90833e-014
rhumerus 20.2568 -29.9423 -46.8827
rradius 111.454
rwrist -6.00362
rhand -63.3104 63.7374
rfingers 7.12502
rthumb -35.2973 37.2513
lclavicle -1.18277e-013 -1.90833e-014
lhumerus 115.84 -41.8711 40.9975
lradius 40.1511
lwrist -12.17
lhand -31.9605 0.0459718
lfingers 7.12502
lthumb -185.211 -150.038
rfemur -32.7654 16.5681 22.0495
rtibia 27.5967
rfoot -5.39518 17.2492
rtoes 17.2965
lfemur -6.13092 18.9173 4.51296
ltibia 28.1103
lfoot -1.77763 19.2439
ltoes -31.8372
325
root -6.5165 17.9176 2.3938 3.04933 47.3321 -13.7758
lowerback 4.89814 -9.77925 -10.8053
upperback -0.0300095 -13.5721 -2.02161
thorax -0.766627 -6.67544 4.2376
lowerneck -7.58552 20.8076 1.56449
upperneck 14.6284 31.0414 -14.3759
head 8.38139 13.7454 -1.39522
rclavicle 1.28017e-013 -3.18055e-014
rhumerus 20.6348 -29.8843 -47.8116
rradius 111.169
rwrist -6.632
rhand -63.0566 63.5581
rfingers 7.12502
rthumb -35.0566 37.0153
lclavicle 1.28017e-013 -3.18055e-014
lhumerus 115.652 -41.8765 40.9926
lradius 39.7792
lwrist -11.8822
lhand -31.0814 0.101559
lfingers 7.12502
lthumb -184.362 -149.963
rfemur -32.9246 16.1486 21.9733
rtibia 27.4704
rfoot -5.17857 17.0269
rtoes 16.9703
lfemur -6.64542 19.1191 4.34146
ltibia 28.0985
lfoot -2.08058 19.1137
ltoes -30.6818
326
root -6.51815 17.9282 2.354 2.96903 47.7444 -14.0135
lowerback 4.95673 -9.8025 -10.6803
upperback 0.0489869 -13.5983 -1.87625
thorax -0.704205 -6.69789 4.32172
lowerneck -7.75421 20.7201 1.38571
upperneck 14.7629 30.9588 -14.3123
head 8.41105 13.6839 -1.35138
rclavicle -6.48038e-014 -4.77083e-014
rhumerus 20.9991 -29.8135 -48.7122
rradius 110.887
rwrist -7.54937
rhand -62.8493 62.3561
rfingers 7.12502
rthumb -34.86 35.7675
lclavicle -6.48038e-014 -4.77083e-014
lhumerus 115.411 -42.0029 41.1767
lradius 39.519
lwrist -10.8946
lhand -29.4546 0.0725323
lfingers 7.12502
lthumb -182.791 -149.966
rfemur -33.0451 15.8401 21.9813
rtibia 27.3264
rfoot -5.15921 16.8409
rtoes 16.0354
lfemur -7.19569 19.5932 4.22563
ltibia 28.1027
lfoot -1.18062 18.9221
ltoes -33.1583
327
root -6.52063 17.9312 2.31154 2.88837 48.171 -14.2269
lowerback 5.05764 -9.79893 -10.6208
upperback 0.11904 -13.5983 -1.70632
thorax -0.657608 -6.70594 4.47198
lowerneck -7.78399 20.6356 1.1943
upperneck 14.7311 30.8657 -14.367
head 8.37943 13.6309 -1.36235
rclavicle 7.99114e-014 -1.90833e-014
rhumerus 21.2491 -29.488 -49.5886
rradius 110.569
rwrist -8.40442
rhand -62.8597 60.6295
rfingers 7.12502
rthumb -34.8698 34.0431
lclavicle 7.99114e-014 -1.90833e-014
lhumerus 115.116 -42.2203 41.487
lradius 39.367
lwrist -9.80676
lhand -27.7635 0.105037
lfingers 7.12502
lthumb -181.157 -149.918
rfemur -33.1452 15.7303 21.8845
rtibia 27.1307
rfoot -5.32808 16.3751
rtoes 14.3004
lfemur -7.68325 20.2361 4.08962
ltibia 28.1875
lfoot -0.580795 18.4095
ltoes -35.6609
328
root -6.52465 17.9369 2.2652 2.83287 48.6853 -14.4074
lowerback 5.1702 -9.77895 -10.5908
upperback 0.225007 -13.5759 -1.58928
thorax -0.589192 -6.70398 4.58278
lowerneck -7.90839 20.5693 1.19798
upperneck 14.7571 30.7923 -14.4089
head 8.41153 13.585 -1.36864
rclavicle -9.78021e-014 4.45278e-014
rhumerus 21.3841 -29.2455 -50.4189
rradius 110.236
rwrist -9.15367
rhand -62.8896 59.2923
rfingers 7.12502
rthumb -34.8982 32.7125
lclavicle -9.78021e-014 4.45278e-014
lhumerus 115.011 -42.4699 41.5306
lradius 39.2187
lwrist -8.94908
lhand -26.4121 0.487873
lfingers 7.12502
lthumb -179.852 -149.532
rfemur -33.2419 15.7408 21.6745
rtibia 26.9069
rfoot -5.50941 15.5719
rtoes 12.5203
lfemur -8.18568 20.7024 3.93037
ltibia 28.294
lfoot -1.40461 18.1655
ltoes -34.1193
329
root -6.5296 17.9502 2.21617 2.71604 49.2648 -14.6726
lowerback 5.2692 -9.74332 -10.4735
upperback 0.355813 -13.5248 -1.47034
thorax -0.510761 -6.68988 4.64821
lowerneck -8.09415 20.4544 1.10814
upperneck 14.8586 30.6377 -14.2716
head 8.42682 13.5038 -1.32286
rclavicle -2.38542e-014 -1.90833e-014
rhumerus 21.5192 -29.2012 -51.1785
rradius 109.961
rwrist -10.103
rhand -62.6907 58.2203
rfingers 7.12502
rthumb -34.7094 31.5968
lclavicle -2.38542e-014 -1.90833e-014
lhumerus 115.108 -42.677 41.3779
lradius 38.8226
lwrist -8.36542
lhand -25.3992 0.799345
lfingers 7.12502
lthumb -178.874 -149.224
rfemur -33.3215 15.5752 21.562
rtibia 26.6687
rfoot -5.33069 14.9425
rtoes 11.8433
lfemur -8.84544 21.183 3.76769
ltibia 28.3367
lfoot -2.04958 18.2333
ltoes -31.894
330
root -6.53228 17.9627 2.16181 2.78205 49.8161 -14.7389
lowerback 5.32934 -9.62012 -10.3446
upperback 0.362767 -13.3617 -1.54006
thorax -0.606703 -6.60346 4.53208
lowerneck -7.66426 20.2592 1.52918
upperneck 14.9198 30.296 -14.1932
head 8.39347 13.3964 -1.43386
rclavicle -1.52269e-013 -3.81667e-014
rhumerus 21.0887 -29.236 -51.8175
rradius 109.713
rwrist -11.0121
rhand -62.4014 57.1181
rfingers 7.12502
rthumb -34.4349 30.432
lclavicle -1.52269e-013 -3.81667e-014
lhumerus 115.172 -43.3516 41.1717
lradius 38.4296
lwrist -7.98621
lhand -24.3644 1.04467
lfingers 7.12502
lthumb -177.875 -148.986
rfemur -33.4273 15.1776 21.3546
rtibia 26.3997
rfoot -4.83075 14.6503
rtoes 12.218
lfemur -9.50781 21.5178 3.38206
ltibia 28.3277
lfoot -2.15181 18.301
ltoes -31.7762
331
root -6.53414 17.9742 2.10419 2.99083 50.3136 -14.6443
lowerback 5.49283 -9.77874 -10.4543
upperback 0.346348 -13.5996 -1.23094
thorax -0.57799 -6.72728 4.91918
lowerneck -7.90854 20.3729 0.6834
upperneck 14.9104 30.5233 -14.0669
head 8.30539 13.4637 -1.27116
rclavicle -4.09496e-014 -1.59028e-014
rhumerus 21.8232 -28.4702 -52.8781
rradius 109.296
rwrist -11.7518
rhand -62.3478 55.7026
rfingers 7.12502
rthumb -34.384 29.0049
lclavicle -4.09496e-014 -1.59028e-014
lhumerus 114.153 -43.218 41.9371
lradius 37.9647
lwrist -8.06736
lhand -23.6155 1.19786
lfingers 7.12502
lthumb -177.151 -148.841
rfemur -33.5677 14.8993 20.9794
rtibia 26.1417
rfoot -4.44556 14.2918
rtoes 12.3177
lfemur -10.0769 21.5164 2.8526
ltibia 28.2588
lfoot -2.26513 18.4885
ltoes -32.2543
332
root -6.53853 17.9838 2.04967 2.99419 50.8516 -14.7456
lowerback 5.65584 -9.79634 -10.5257
upperback 0.359824 -13.6458 -1.05683
thorax -0.587054 -6.75272 5.15573
lowerneck -7.7312 20.3379 0.694248
upperneck 14.8574 30.4906 -14.2276
head 8.28546 13.4529 -1.34088
rclavicle -8.50798e-014 2.8625e-014
rhumerus 21.8473 -28.0362 -53.6741
rradius 108.921
rwrist -12.4688
rhand -62.4256 54.8111
rfingers 7.12502
rthumb -34.4578 28.1302
lclavicle -8.50798e-014 2.8625e-014
lhumerus 113.726 -43.3726 42.0449
lradius 37.4287
lwrist -8.11778
lhand -23.2807 1.45647
lfingers 7.12502
lthumb -176.828 -148.587
rfemur -33.683 14.7018 20.7378
rtibia 25.9714
rfoot -4.35911 13.8706
rtoes 11.5289
lfemur -10.5388 21.6473 2.51805
ltibia 28.0758
lfoot -2.57687 18.5523
ltoes -31.8598
333
root -6.54318 17.9895 1.99461 2.83967 51.4812 -15.0229
lowerback 5.73452 -9.85366 -10.4337
upperback 0.535394 -13.7126 -0.86405
thorax -0.407399 -6.8058 5.29355
lowerneck -8.03051 20.2947 0.398692
upperneck 14.8565 30.4558 -14.1554
head 8.27739 13.414 -1.26895
rclavicle 8.5875e-014 1.59028e-014
rhumerus 22.1415 -27.6615 -54.668
rradius 108.463
rwrist -13.1262
rhand -62.4107 54.7563
rfingers 7.12502
rthumb -34.4437 28.0721
lclavicle 8.5875e-014 1.59028e-014
lhumerus 113.474 -43.3451 41.9862
lradius 36.9225
lwrist -8.02768
lhand -22.7215 1.96966
lfingers 7.12502
lthumb -176.288 -148.083
rfemur -33.8004 14.4199 20.6267
rtibia 25.8788
rfoot -4.4761 13.4204
rtoes 10.1685
lfemur -10.9724 21.8627 2.33646
ltibia 27.8232
lfoot -3.24708 18.4059
ltoes -29.9412
334
root -6.54805 17.988 1.93318 2.6676 52.1517 -15.4178
lowerback 5.76977 -10.0061 -10.1425
upperback 0.749151 -13.8881 -0.560682
thorax -0.164001 -6.92071 5.42693
lowerneck -8.96305 20.3147 -0.512417
upperneck 15.0641 30.5933 -13.7756
head 8.31683 13.3969 -0.961761
rclavicle 3.57812e-014 9.54166e-015
rhumerus 22.8914 -27.0697 -55.7833
rradius 107.927
rwrist -13.7927
rhand -62.4798 54.5394
rfingers 7.12502
rthumb -34.5093 27.8702
lclavicle 3.57812e-014 9.54166e-015
lhumerus 112.856 -43.1517 42.3427
lradius 36.3908
lwrist -8.28922
lhand -22.2849 2.06467
lfingers 7.12502
lthumb -175.866 -147.996
rfemur -34.0416 14.1737 20.5178
rtibia 25.8325
rfoot -4.64841 12.8191
rtoes 7.93826
lfemur -11.505 21.9513 2.18738
ltibia 27.5584
lfoot -4.14308 18.2194
ltoes -26.8861
335
root -6.55295 17.9837 1.86802 2.62784 52.7992 -15.6833
lowerback 5.69591 -9.54326 -9.75574
upperback 0.727743 -13.2441 -1.09696
thorax -0.465866 -6.57409 4.71256
lowerneck -7.70491 19.7627 2.09044
upperneck 15.3028 29.6213 -14.1877
head 8.55392 13.0853 -1.55924
rclavicle -1.31198e-014 2.8625e-014
rhumerus 20.818 -27.8967 -55.9734
rradius 107.711
rwrist -14.5538
rhand -62.5552 53.5091
rfingers 7.12502
rthumb -34.5809 26.8562
lclavicle -1.31198e-014 2.8625e-014
lhumerus 113.827 -44.9634 40.9577
lradius 36.0368
lwrist -8.05141
lhand -21.9572 2.02653
lfingers 7.12502
lthumb -175.55 -148.04
rfemur -34.3459 13.7731 20.351
rtibia 25.7991
rfoot -4.70621 12.4203
rtoes 5.84355
lfemur -12.0834 21.9915 1.88454
ltibia 27.2806
lfoot -4.97652 18.114
ltoes -24.0105
